<?xml version="1.0" standalone="no"?>
<!DOCTYPE svg PUBLIC "-//W3C//DTD SVG 20010904//EN"
 "http://www.w3.org/TR/2001/REC-SVG-20010904/DTD/svg10.dtd">
<svg version="1.0" xmlns="http://www.w3.org/2000/svg"
 width="512.000000pt" height="512.000000pt" viewBox="0 0 512.000000 512.000000"
 preserveAspectRatio="xMidYMid meet" fill="#484f58">

<g transform="translate(0.000000,512.000000) scale(0.100000,-0.100000)"
fill="#000000" stroke="none">
<path d="M2430 5114 c-278 -33 -428 -76 -640 -186 -316 -162 -570 -421 -735
-749 -124 -246 -193 -593 -165 -839 62 -551 578 -1649 1433 -3048 162 -265
183 -292 237 -292 53 0 76 27 223 267 855 1394 1385 2520 1447 3073 28 246
-41 593 -165 839 -247 492 -701 828 -1235 917 -86 15 -336 26 -400 18z m424
-234 c563 -119 1005 -550 1134 -1105 28 -119 46 -303 38 -389 -44 -480 -488
-1446 -1259 -2738 -111 -186 -204 -338 -207 -338 -3 0 -96 152 -207 337 -771
1293 -1215 2259 -1259 2739 -13 140 27 392 88 558 189 517 643 879 1198 956
105 15 361 4 474 -20z"/>
<path d="M2384 4305 c-151 -33 -268 -99 -389 -220 -103 -104 -145 -168 -188
-292 -42 -123 -49 -289 -18 -413 68 -275 269 -482 546 -566 79 -24 107 -27
225 -27 118 0 146 3 225 27 277 84 478 291 546 566 31 124 24 290 -18 413 -43
124 -85 188 -188 292 -123 123 -238 188 -393 220 -83 18 -267 18 -348 0z m336
-212 c192 -52 357 -214 405 -398 20 -78 19 -217 -1 -286 -60 -203 -231 -360
-439 -404 -303 -64 -602 112 -689 404 -20 69 -21 208 -1 286 56 214 263 390
490 415 77 9 165 2 235 -17z"/>
</g>
</svg>
